# xmcd
#
# Track frame offsets: 
#        150
#        36960
#        83581
#        124053
#        149358
#        192058
#        241282
#
# Disc length: 3596 seconds
#
# Revision: 2
# Processed by: cddbd v1.5.2PL0 Copyright (c) Steve Scherf et al.
# Submitted via: ExactAudioCopy v0.99pb4
#
DISCID=560e0a07
DTITLE=Gianluca Petrella - Live at Casa del Jazz (07-11), Roma 12.04.2
DTITLE=007
DYEAR=2007
DGENRE=Jazz
TTITLE0=The Cosmics
TTITLE1=Invisibile
TTITLE2=Slow bars
TTITLE3=We see
TTITLE4=Flexible
TTITLE5=Saturn
TTITLE6=The Cosmics versione n. 2
EXTD=COSMIC MUSIC\nSpecial guest: Paolo Fresu\nGianluca Petrella- trom
EXTD=bone e direzione\nGiovanni Guidi - piano (brani1,2,4,5,6,7]\nFran
EXTD=cesco Guerri - violoncello (brani 1,5,6,7]\nFrancesco Bigoni - sa
EXTD=x tenore (brani 1,2,5,6,7]\nBeppe Scardino - sax baritono (brani 
EXTD=1,3,5,6,7]\nMirco Rubegni - tromba (brani 1,5,6,7]\nAlfonso Santi
EXTD=mone - synth (brani 1,3,5,6,7]\nGabrio Baldacci - chitarra (brani
EXTD=1,3,5,6,7]\nFrancesto Ponticelli - contrabbasso\nSimone Padovani
EXTD=percussioni (brani 1,3,5,6,7]\nPaolo Fresu - tromba e flicorno
EXTD=(brani2,5,6,7)
EXTT0=
EXTT1=
EXTT2=
EXTT3=
EXTT4=
EXTT5=
EXTT6=
PLAYORDER=
